<?xml version="1.0" encoding="UTF-8" standalone="no"?>
<svg
   width="22"
   height="22"
   version="1.1"
   id="svg2"
   sodipodi:docname="checkbox.svg"
   inkscape:version="1.3.2 (091e20ef0f, 2023-11-25)"
   xmlns:inkscape="http://www.inkscape.org/namespaces/inkscape"
   xmlns:sodipodi="http://sodipodi.sourceforge.net/DTD/sodipodi-0.dtd"
   xmlns="http://www.w3.org/2000/svg"
   xmlns:svg="http://www.w3.org/2000/svg">
  <sodipodi:namedview
     id="namedview2"
     pagecolor="#ffffff"
     bordercolor="#000000"
     borderopacity="0.25"
     inkscape:showpageshadow="2"
     inkscape:pageopacity="0.0"
     inkscape:pagecheckerboard="0"
     inkscape:deskcolor="#d1d1d1"
     inkscape:zoom="36.272727"
     inkscape:cx="10.986216"
     inkscape:cy="18.223058"
     inkscape:window-width="1920"
     inkscape:window-height="996"
     inkscape:window-x="0"
     inkscape:window-y="0"
     inkscape:window-maximized="1"
     inkscape:current-layer="svg2" />
  <defs
     id="defs2">
    <linearGradient
       id="A"
       x1="364.504"
       y1="527.353"
       x2="342.503"
       y2="537.37"
       gradientUnits="userSpaceOnUse">
      <stop
         offset="0"
         stop-color="#61717c"
         id="stop1" />
      <stop
         offset="1"
         stop-color="#4b5560"
         id="stop2" />
    </linearGradient>
  </defs>
  <g
     transform="translate(-342.5 -521.362)"
     id="g2"
     style="fill:#00c850;fill-opacity:1">
    <rect
       width="22"
       height="22"
       x="342.5"
       y="521.362"
       ry="5.0"
       fill="url(#A)"
       id="rect2"
       style="fill:#00c850;fill-opacity:1" />
    <path
       d="M360.054 530.084l-7.76 7.047c-.155.154-.386.231-.58.231-.232 0-.425-.077-.58-.231l-4.188-4.19a.85.85 0 0 1-.232-.579.85.85 0 0 1 .232-.579l1.331-1.333c.155-.154.386-.231.58-.231.232 0 .425.077.58.231l2.277 2.626 5.849-5.483c.155-.154.386-.231.58-.231.232 0 .425.077.58.231l1.331 1.333a.85.85 0 0 1 .232.579.85.85 0 0 1-.232.579z"
       fill="#fff"
       id="path2"
       style="fill:#008635;fill-opacity:1" />
  </g>
</svg>
