<?xml version="1.0" encoding="UTF-8" standalone="no"?>
<svg
   width="22"
   height="22"
   version="1.1"
   id="svg1"
   sodipodi:docname="checkbox-focused.svg"
   inkscape:version="1.3.2 (091e20ef0f, 2023-11-25)"
   xmlns:inkscape="http://www.inkscape.org/namespaces/inkscape"
   xmlns:sodipodi="http://sodipodi.sourceforge.net/DTD/sodipodi-0.dtd"
   xmlns="http://www.w3.org/2000/svg"
   xmlns:svg="http://www.w3.org/2000/svg">
  <defs
     id="defs1" />
  <sodipodi:namedview
     id="namedview1"
     pagecolor="#ffffff"
     bordercolor="#000000"
     borderopacity="0.25"
     inkscape:showpageshadow="2"
     inkscape:pageopacity="0.0"
     inkscape:pagecheckerboard="0"
     inkscape:deskcolor="#d1d1d1"
     inkscape:zoom="36.272727"
     inkscape:cx="11"
     inkscape:cy="11"
     inkscape:window-width="1920"
     inkscape:window-height="996"
     inkscape:window-x="0"
     inkscape:window-y="0"
     inkscape:window-maximized="1"
     inkscape:current-layer="svg1" />
  <rect
     width="22"
     height="22"
     ry="5.0"
     fill="#5d5f61"
     id="rect1"
     style="fill:#6494ee;fill-opacity:1" />
  <path
     d="M17.554 8.722l-7.76 7.047c-.155.154-.386.231-.58.231-.232 0-.425-.077-.58-.231l-4.188-4.19A.85.85 0 0 1 4.214 11a.85.85 0 0 1 .232-.579l1.331-1.333c.155-.154.386-.231.58-.231.232 0 .425.077.58.231l2.277 2.626 5.849-5.483c.155-.154.386-.231.58-.231.232 0 .425.077.58.231l1.331 1.333a.85.85 0 0 1 .232.579.85.85 0 0 1-.232.579z"
     fill="#fff"
     id="path1"
     style="fill:#385385;fill-opacity:1" />
</svg>
